<svg width="103" height="54" viewBox="0 0 103 54" fill="none" xmlns="http://www.w3.org/2000/svg">
<path d="M94 29.071L101.071 22" stroke="white" stroke-width="5"/>
<path d="M74.9322 15.0941L79.1584 6.03104" stroke="white" stroke-width="5"/>
<path d="M52 0L52 10" stroke="white" stroke-width="5"/>
<path d="M27.2262 15.0631L23 6.00003" stroke="white" stroke-width="5"/>
<path d="M9.07107 29.071L2 22" stroke="white" stroke-width="5"/>
<path d="M65 36C65 43.1797 59.1797 49 52 49C44.8203 49 39 43.1797 39 36C39 28.8203 44.8203 23 52 23C59.1797 23 65 28.8203 65 36Z" fill="white"/>
<path d="M83.6386 36C75.2172 27.6736 63.8495 23 52 23C40.1505 23 28.7828 27.6736 20.3614 36H13.5811C14.547 34.8404 15.5688 33.7205 16.6447 32.6447C26.0215 23.2678 38.7392 18 52 18C65.2608 18 77.9785 23.2678 87.3553 32.6447C88.4312 33.7205 89.453 34.8404 90.4189 36H83.6386Z" fill="white"/>
<path d="M20.3614 36C28.7828 44.3264 40.1505 49 52 49C63.8495 49 75.2172 44.3264 83.6386 36H90.4189C89.453 37.1596 88.4312 38.2795 87.3553 39.3553C77.9785 48.7322 65.2608 54 52 54C38.7392 54 26.0215 48.7322 16.6447 39.3553C15.5688 38.2795 14.547 37.1596 13.5811 36L20.3614 36Z" fill="white"/>
</svg>
